<svg xmlns="http://www.w3.org/2000/svg" viewBox="0 0 24 19.9"><defs><style>.cls-1{isolation:isolate;}.cls-2{fill:#fff;opacity:0.7;}.cls-3,.cls-4{fill:#1da1f2;}.cls-4{opacity:0.11;mix-blend-mode:difference;}</style></defs><title>Recurso 1</title><g class="cls-1"><g id="Capa_2" data-name="Capa 2"><g id="Capa_1-2" data-name="Capa 1"><path class="cls-2" d="M13.51,11.68a4.93,4.93,0,0,1,5.14-4.45c1.56,0-1.72.16-2,3.37C16.26,14.3,13.37,13.24,13.51,11.68Z"/><path class="cls-3" d="M21.18,7.56c0,.1,0,.2,0,.3,0,3.39-2.61,5.74-4.59,8-.27.3-.65.71-1.08,1.15,1.4,1.43,3,2.94,3,2.94s2-2,2.74-2.8C22.44,15.78,24,14.38,24,12.36A5.49,5.49,0,0,0,21.18,7.56Z"/><path class="cls-3" d="M6.86,15.47C4.8,13.36,2.81,11,2.81,7.86c0-.1,0-.2,0-.3A5.49,5.49,0,0,0,0,12.36c0,1.89,1.19,3.28,2.42,4.54,1.41,1.44,3.06,3,3.06,3s2-2,2.74-2.8L8.35,17C7.85,16.48,7.35,16,6.86,15.47Z"/><path class="cls-3" d="M12,18.88c-.87-.83-2.71-2.59-4.32-4.24C5.84,12.77,4.05,10.71,4.05,8A8,8,0,0,1,20,8c0,2.53-1.74,4.42-3.43,6.24L15.8,15C15,15.92,12.93,18,12,18.88Z"/><path class="cls-2" d="M4.49,7.43c.41-4.5,4.16-7,8.15-7,2.47,0-2.73.26-3.23,5.35C8.84,11.58,4.26,9.91,4.49,7.43Z"/><path class="cls-4" d="M12,18.88c.94-.93,3-3,3.81-3.9l.72-.79C18.21,12.37,20,10.48,20,8A7.89,7.89,0,0,0,18.21,3C16.29,13.39,7.67,14.64,7.67,14.64,9.28,16.29,11.12,18.05,12,18.88Z"/></g></g></g></svg>